<?xml version="1.0" encoding="UTF-8"?><svg xmlns="http://www.w3.org/2000/svg" xmlns:xlink="http://www.w3.org/1999/xlink" viewBox="0 0 278.5 444.81"><defs><style>.cls-1{fill:#8dcdfc;}.cls-2,.cls-3{fill:#fff;}.cls-4{fill:#4bacef;}.cls-5,.cls-6{fill:#6dc1f6;}.cls-7,.cls-8,.cls-6,.cls-9{opacity:.5;}.cls-10{fill:#d9bf97;}.cls-11,.cls-12{fill:#fbc8b5;}.cls-3,.cls-12,.cls-13{opacity:.3;}.cls-12,.cls-8,.cls-13,.cls-6,.cls-14,.cls-9{mix-blend-mode:multiply;}.cls-15{clip-path:url(#clippath-2);}.cls-16,.cls-9{fill:#63b7f9;}.cls-17{isolation:isolate;}.cls-8,.cls-18{fill:#75befe;}.cls-19{clip-path:url(#clippath-6);}.cls-20{fill:#2791cc;}.cls-21{clip-path:url(#clippath-1);}.cls-22{clip-path:url(#clippath-4);}.cls-23{fill:#be934e;}.cls-13{fill:#52b5ee;}.cls-24{fill:#3aabdd;}.cls-25{fill:#fbc9b6;}.cls-26{fill:#7bcaff;}.cls-27{clip-path:url(#clippath);}.cls-28{fill:#e2718c;}.cls-29,.cls-30{fill:none;}.cls-31{clip-path:url(#clippath-3);}.cls-32{fill:#875534;}.cls-33{clip-path:url(#clippath-5);}.cls-34{fill:#f2ae99;}.cls-30{stroke:#411eb3;stroke-miterlimit:10;}</style><clipPath id="clippath"><path class="cls-29" d="M261.12,74.98c0,23.18-18.79,41.96-41.96,41.96s-41.96-18.79-41.96-41.96,18.79-41.96,41.96-41.96,41.96,18.79,41.96,41.96Z"/></clipPath><clipPath id="clippath-1"><path class="cls-29" d="M151.06,92.87c0,23.18-18.79,41.96-41.96,41.96s-41.96-18.79-41.96-41.96,18.79-41.96,41.96-41.96,41.96,18.79,41.96,41.96Z"/></clipPath><clipPath id="clippath-2"><path class="cls-29" d="M233.46,206.58c-4.9,22.65-27.23,37.04-49.88,32.15-22.65-4.9-37.04-27.23-32.15-49.88,4.9-22.65,27.23-37.04,49.88-32.15,22.65,4.9,37.05,27.23,32.15,49.88Z"/></clipPath><clipPath id="clippath-3"><path class="cls-29" d="M99.28,382.15c7.2,8.62,17.3,1.69,17.93-8.56,.43-8.07-2.03-16.69-5.84-24.63-.98-2.06-2.11-4.12-3.48-5.95-.11-1.42-.25-2.85-.79-4.31-.81-2.19-3.01-3.87-5.08-3.57-.14,.02-.28,.05-.42,.09-.69-1.63-2.45-2.81-4.04-3-1.44-.18-2.55,.23-3.45,1.08-.29,.28-.44,.61-.57,.95-.25-.16-.52-.32-.8-.45-1.36-.65-2.7-.83-3.83-.15-.54,.33-1.01,.91-1.26,1.58-.21-.15-.43-.29-.65-.43-1.55-.97-3.55-.49-4.45,.64-.42,.53-.63,1.19-.65,1.88-1-.41-2.09-.57-3.21-.37-2.08,.37-3.21,1.67-3.04,3.81,.19,2.4,1.33,4.53,3.05,6.24,.22,.22,.47,.39,.73,.54,.21,.81,.53,1.67,.9,2.57,5.15,11.72,10.7,22.69,18.95,32.04Z"/></clipPath><clipPath id="clippath-4"><path class="cls-29" d="M107.14,373.9c3.71,10.6-7.42,15.72-16.54,11.01-7.15-3.76-13.29-10.29-18.17-17.63-1.27-1.9-2.46-3.92-3.33-6.03-1.17-.82-2.32-1.67-3.29-2.89-1.47-1.82-1.78-4.57-.46-6.2,.09-.11,.19-.22,.29-.31-1.05-1.43-1.16-3.55-.51-5.01,.59-1.33,1.5-2.08,2.7-2.41,.39-.1,.75-.06,1.11,0,0-.3,0-.61,.02-.92,.14-1.5,.67-2.75,1.83-3.36,.56-.3,1.3-.4,2-.27-.02-.26-.03-.52-.03-.78-.04-1.83,1.39-3.3,2.82-3.49,.67-.09,1.35,.07,1.95,.4,.16-1.07,.58-2.08,1.33-2.95,1.38-1.6,3.08-1.91,4.83-.66,1.96,1.39,3.21,3.46,3.8,5.82,.07,.3,.1,.6,.09,.9,.59,.6,1.16,1.31,1.74,2.09,7.42,10.43,14,20.81,17.81,32.69Z"/></clipPath><clipPath id="clippath-5"><path class="cls-29" d="M199.53,299.96c-5.62,5.94-13.13,12.13-16.19,20.02-9.52,24.56,26.79,62.45,51.87,50.81,7.85-3.66,14.19-10.99,20.27-16.87,6.73-6.51,12.99-13.56,18.91-20.82,9.87-12.1,.09-30.22-9.92-40.38-9.07-9.2-31.41-22.26-43.13-12.69-7.63,6.22-15.06,12.79-21.81,19.94Z"/></clipPath><clipPath id="clippath-6"><path class="cls-29" d="M81.49,385.39c-.83,1.59-1.59,3.22-2.2,4.91-2.24,6.2-2.92,13.79,1.31,19.38,3.01,3.99,6.68,6.65,10.69,8.26,16.36,19.72,42.09,28.11,67.44,26.73,24.18-1.32,59.28-9.77,67.48-36.15,2.46-.67,4.78-1.95,6.74-3.99,5.25-5.46,6.67-12.91,4.66-20.12-.11-.38-.29-.68-.51-.91,6.06-3.71,10.39-10.91,11.16-18.37,.13-1.29-.73-1.96-1.73-2.05-.36-.12-.76-.15-1.22-.03-44.31,11.44-70.15-40.04-78.48-75.31-.58-2.47-4.08-1.73-4.21,.47-.38,.25-.69,.65-.81,1.25-1.93,9.49-6.78,18.36-12.07,26.38-6.69,10.13-14.61,19.53-23.65,27.66-14.82,13.33-37.87,28.26-57.81,17.06-.83-1.91-4.04-.94-4.02,1.31-.03,.32,0,.65,.13,.96,1.87,10.57,8.36,18.31,17.11,22.55Z"/></clipPath></defs><g class="cls-17"><g id="Camada_2"><g id="OBJECTS"><g><g><g><line class="cls-30" x1="189.46" y1="225.05" x2="173.19" y2="292.39"/><line class="cls-30" x1="178.05" y1="220.95" x2="166.52" y2="289.26"/><line class="cls-30" x1="162.34" y1="80.88" x2="163.25" y2="289.44"/><line class="cls-30" x1="136.58" y1="199.29" x2="152.85" y2="283.35"/><line class="cls-30" x1="147.91" y1="197.89" x2="157.8" y2="282.94"/></g><g><g><g><path class="cls-18" d="M166.63,86.64c-.8-3.21-4.09-7.6-5.54-5.13-1.08,1.84-1.86,3.81-2.24,5.91-.2,1.1,.46,2.16,1.66,2.18,1.77,.03,3.51,.31,5.27-.06,1.06-.22,1.21-1.44,.84-2.89Z"/><circle class="cls-18" cx="162.07" cy="41.96" r="41.96" transform="translate(-4.09 62.38) rotate(-21.52)"/><path class="cls-8" d="M168.26,71.54c-23.17,0-41.96-18.79-41.96-41.96,0-4.27,.64-8.4,1.83-12.28-5.04,6.92-8.02,15.44-8.02,24.66,0,23.17,18.79,41.96,41.96,41.96,18.9,0,34.88-12.5,40.13-29.68-7.63,10.48-19.99,17.3-33.94,17.3Z"/></g><path class="cls-3" d="M177.53,24.92c3.47,5.67,8.92,8.65,12.16,6.67,3.24-1.99,3.05-8.19-.43-13.86-3.47-5.67-8.92-8.65-12.16-6.67-3.24,1.99-3.05,8.19,.43,13.86Z"/></g><g><g><path class="cls-18" d="M224.64,119.66c-.8-3.21-4.08-7.6-5.53-5.13-1.08,1.84-1.86,3.81-2.24,5.91-.2,1.1,.47,2.16,1.66,2.18,1.77,.03,3.51,.31,5.27-.06,1.06-.22,1.21-1.44,.84-2.9Z"/><g class="cls-27"><path class="cls-18" d="M261.12,74.98c0,23.18-18.79,41.96-41.96,41.96s-41.96-18.79-41.96-41.96,18.79-41.96,41.96-41.96,41.96,18.79,41.96,41.96Z"/><path class="cls-2" d="M161.38,74.64c17.62-.54,34.12-8.12,48.25-18.26,14.33-10.29,26.9-23.5,36-38.64,3.44-5.72-5.49-10.9-8.91-5.21-8.01,13.32-18.97,25.01-31.41,34.28-12.69,9.46-27.85,17.01-43.93,17.51-6.64,.2-6.66,10.52,0,10.32h0Z"/><path class="cls-2" d="M175.14,97.34c17.62-.54,34.12-8.12,48.25-18.26,14.33-10.29,26.9-23.5,36-38.64,3.44-5.72-5.49-10.9-8.91-5.21-8.01,13.32-18.97,25.01-31.41,34.28-12.69,9.46-27.85,17.01-43.93,17.51-6.64,.21-6.66,10.52,0,10.32h0Z"/><path class="cls-2" d="M187.52,119.35c17.62-.54,34.12-8.12,48.25-18.27,14.33-10.29,26.9-23.5,36-38.63,3.44-5.72-5.49-10.9-8.91-5.21-8.01,13.32-18.97,25-31.41,34.28-12.69,9.46-27.85,17.01-43.93,17.51-6.64,.2-6.66,10.52,0,10.32h0Z"/></g><path class="cls-8" d="M225.01,104.56c-23.18,0-41.96-18.79-41.96-41.96,0-4.27,.64-8.4,1.83-12.28-5.04,6.92-8.02,15.44-8.02,24.66,0,23.18,18.79,41.96,41.96,41.96,18.9,0,34.88-12.5,40.13-29.68-7.63,10.48-19.98,17.3-33.94,17.3Z"/></g><path class="cls-3" d="M238.06,57.94c3.48,5.67,8.92,8.65,12.16,6.67,3.24-1.99,3.05-8.19-.43-13.86-3.48-5.67-8.92-8.65-12.16-6.67-3.24,1.99-3.05,8.19,.43,13.86Z"/></g><g><g><path class="cls-16" d="M196.9,169.19c-.8-3.21-4.09-7.6-5.54-5.13-1.08,1.84-1.86,3.81-2.24,5.91-.2,1.1,.46,2.16,1.66,2.18,1.77,.03,3.51,.31,5.27-.06,1.06-.22,1.21-1.44,.84-2.89Z"/><circle class="cls-4" cx="192.33" cy="124.51" r="41.96" transform="translate(-32.92 82.61) rotate(-22.38)"/><path class="cls-9" d="M198.52,154.09c-23.17,0-41.96-18.79-41.96-41.96,0-4.27,.64-8.4,1.83-12.28-5.04,6.92-8.02,15.44-8.02,24.66,0,23.17,18.79,41.96,41.96,41.96,18.9,0,34.88-12.5,40.13-29.68-7.63,10.48-19.99,17.3-33.94,17.3Z"/></g><path class="cls-3" d="M207.79,107.47c3.48,5.67,8.92,8.65,12.16,6.67,3.24-1.99,3.05-8.19-.43-13.86-3.47-5.67-8.92-8.65-12.16-6.67-3.24,1.99-3.05,8.19,.43,13.86Z"/></g><g><g><path class="cls-18" d="M114.98,138.12c-.8-3.21-4.09-7.6-5.54-5.13-1.08,1.84-1.86,3.81-2.24,5.91-.2,1.1,.46,2.16,1.66,2.18,1.77,.03,3.51,.31,5.27-.06,1.06-.22,1.2-1.44,.84-2.9Z"/><g class="cls-21"><path class="cls-18" d="M151.06,92.87c0,23.18-18.79,41.96-41.96,41.96s-41.96-18.79-41.96-41.96,18.79-41.96,41.96-41.96,41.96,18.79,41.96,41.96Z"/><path class="cls-2" d="M83.49,47.47c-3.88,10.92-5.94,25.12,1.65,34.87,3.91,5.02,11.05,4.63,16.72,4.87,2.32,.1,4.28,.53,5.91,2.25,1.15,1.21-.76,6.4-1.01,7.96-1.04,6.57,1.29,13.99,6.84,17.96,4.34,3.11,9.98,2.94,14.53,5.53,4.38,2.5,5.41,7.72,6.35,12.24,1.01,4.86,2.25,9.24,6.42,12.31,2.27,1.67,5.75,.38,7.06-1.85,1.53-2.62,.41-5.4-1.85-7.06,.31,.23,.04-.09-.14-.4-.26-.44-.4-.95-.68-1.94-.61-2.14-.95-4.36-1.45-6.53-1.23-5.32-3.67-10.41-7.99-13.88-4.64-3.73-10.1-4.35-15.49-6.33-4.49-1.65-3.5-8.3-2.73-12.04,1.41-6.79-.06-12.42-6.22-16.22-4.97-3.06-10.73-1.72-16.13-2.66-4.77-.83-4.9-7.28-4.86-11.1,.05-5.18,1.3-10.39,3.03-15.25,2.23-6.29-7.74-8.97-9.95-2.74h0Z"/><path class="cls-2" d="M59.41,63.29c-3.88,10.92-5.94,25.12,1.65,34.87,3.91,5.02,11.05,4.63,16.72,4.87,2.32,.1,4.28,.53,5.9,2.25,1.15,1.21-.76,6.4-1.01,7.96-1.04,6.57,1.29,13.99,6.84,17.96,4.35,3.11,9.98,2.94,14.53,5.53,4.37,2.5,5.41,7.72,6.35,12.25,1.01,4.86,2.25,9.24,6.42,12.31,2.27,1.67,5.75,.38,7.06-1.85,1.53-2.62,.41-5.4-1.85-7.06,.31,.23,.05-.09-.14-.4-.26-.44-.4-.95-.68-1.94-.61-2.14-.95-4.36-1.45-6.52-1.23-5.32-3.67-10.41-7.99-13.88-4.64-3.73-10.1-4.35-15.49-6.33-4.49-1.65-3.5-8.3-2.73-12.04,1.41-6.79-.06-12.42-6.22-16.22-4.97-3.06-10.73-1.72-16.13-2.66-4.77-.83-4.9-7.28-4.86-11.1,.05-5.18,1.3-10.39,3.03-15.25,2.23-6.29-7.74-8.97-9.95-2.74h0Z"/><path class="cls-2" d="M105.5,25.46c-3.88,10.92-5.94,25.12,1.65,34.87,3.91,5.02,11.05,4.63,16.72,4.87,2.32,.1,4.28,.53,5.91,2.25,1.15,1.21-.76,6.4-1.01,7.96-1.04,6.57,1.29,13.99,6.84,17.96,4.35,3.11,9.98,2.94,14.53,5.53,4.38,2.5,5.41,7.72,6.35,12.24,1.01,4.86,2.25,9.24,6.42,12.31,2.27,1.67,5.75,.38,7.06-1.85,1.53-2.62,.41-5.4-1.85-7.06,.31,.23,.04-.09-.14-.4-.26-.44-.4-.95-.68-1.94-.61-2.14-.95-4.36-1.45-6.52-1.23-5.32-3.67-10.41-7.99-13.88-4.64-3.73-10.1-4.35-15.49-6.33-4.49-1.65-3.5-8.3-2.73-12.04,1.41-6.79-.06-12.42-6.22-16.22-4.97-3.06-10.73-1.72-16.13-2.66-4.77-.83-4.9-7.28-4.86-11.1,.05-5.18,1.3-10.39,3.03-15.25,2.23-6.29-7.74-8.97-9.95-2.74h0Z"/></g><path class="cls-8" d="M115.29,122.33c-23.17,0-41.96-18.79-41.96-41.96,0-4.27,.64-8.4,1.83-12.28-5.04,6.92-8.02,15.44-8.02,24.66,0,23.17,18.79,41.96,41.96,41.96,18.9,0,34.88-12.5,40.13-29.68-7.63,10.48-19.98,17.3-33.94,17.3Z"/></g><path class="cls-3" d="M121.81,78.58c3.48,5.67,8.92,8.65,12.16,6.67,3.24-1.99,3.05-8.19-.43-13.86-3.48-5.67-8.92-8.65-12.16-6.67-3.24,1.99-3.05,8.19,.43,13.86Z"/></g><g><g><path class="cls-18" d="M142.25,208.71c-1.25-3.07-5.12-6.94-6.21-4.3-.81,1.98-1.3,4.03-1.37,6.17-.04,1.12,.77,2.07,1.95,1.92,1.76-.23,3.52-.19,5.21-.81,1.02-.37,.99-1.59,.42-2.99Z"/><path class="cls-18" d="M172.92,159.17c3.29,22.94-12.64,44.2-35.58,47.49-22.94,3.29-44.2-12.64-47.49-35.58-3.29-22.94,12.64-44.2,35.58-47.49,22.94-3.29,44.2,12.64,47.49,35.58Z"/><path class="cls-8" d="M141.71,193.53c-22.94,3.29-44.2-12.64-47.49-35.58-.61-4.23-.55-8.4,.07-12.42-4.01,7.57-5.75,16.43-4.44,25.55,3.29,22.94,24.55,38.87,47.49,35.58,18.71-2.68,32.75-17.32,35.51-35.08-6.06,11.46-17.33,19.96-31.14,21.94Z"/></g><path class="cls-3" d="M144.27,146.06c4.24,5.12,10.06,7.3,12.98,4.87,2.92-2.43,1.85-8.54-2.39-13.66-4.24-5.12-10.06-7.3-12.98-4.87-2.93,2.43-1.85,8.54,2.39,13.66Z"/></g><g><g><path class="cls-18" d="M188.32,242.77c-.11-3.31-2.39-8.29-4.33-6.19-1.45,1.57-2.62,3.33-3.44,5.31-.42,1.03,0,2.21,1.16,2.48,1.73,.4,3.37,1.04,5.17,1.05,1.08,0,1.48-1.15,1.43-2.65Z"/><g class="cls-15"><path class="cls-18" d="M233.46,206.58c-4.9,22.65-27.23,37.04-49.88,32.15-22.65-4.9-37.04-27.23-32.15-49.88,4.9-22.65,27.23-37.04,49.88-32.15,22.65,4.9,37.05,27.23,32.15,49.88Z"/><path class="cls-2" d="M188.5,212.69c-1.16,5.38-6.47,8.81-11.86,7.64-5.38-1.16-8.81-6.47-7.64-11.86,1.16-5.38,6.47-8.81,11.86-7.64,5.38,1.16,8.81,6.47,7.64,11.86Z"/><path class="cls-2" d="M168.19,182.97c-1.16,5.38-6.47,8.8-11.86,7.64-5.38-1.16-8.81-6.47-7.64-11.86,1.16-5.38,6.47-8.81,11.86-7.64,5.38,1.16,8.81,6.47,7.64,11.86Z"/><path class="cls-2" d="M192.8,161.89c-1.16,5.38-6.47,8.81-11.86,7.64-5.38-1.16-8.81-6.47-7.64-11.86,1.16-5.38,6.47-8.81,11.86-7.64,5.38,1.16,8.81,6.47,7.64,11.86Z"/><path class="cls-2" d="M215.37,194.22c-1.16,5.38-6.47,8.81-11.86,7.64-5.38-1.16-8.81-6.47-7.64-11.86,1.16-5.38,6.47-8.81,11.86-7.64,5.38,1.16,8.81,6.47,7.64,11.86Z"/><path class="cls-2" d="M243.83,212.34c-1.16,5.38-6.47,8.81-11.86,7.64-5.39-1.16-8.81-6.47-7.64-11.86,1.16-5.38,6.47-8.8,11.86-7.64,5.38,1.16,8.8,6.47,7.64,11.86Z"/><path class="cls-2" d="M218.27,237.78c-1.16,5.38-6.47,8.81-11.86,7.64-5.38-1.16-8.8-6.47-7.64-11.86,1.16-5.38,6.47-8.81,11.86-7.64,5.38,1.16,8.8,6.47,7.64,11.86Z"/><path class="cls-2" d="M162.23,223.55c-1.16,5.38-6.47,8.81-11.86,7.64-5.38-1.16-8.8-6.47-7.64-11.86,1.16-5.38,6.47-8.81,11.86-7.64,5.38,1.16,8.81,6.47,7.64,11.86Z"/><path class="cls-2" d="M235.6,169.04c-1.16,5.38-6.47,8.81-11.86,7.64-5.39-1.16-8.81-6.47-7.64-11.86,1.16-5.38,6.47-8.81,11.86-7.64,5.38,1.16,8.81,6.47,7.64,11.86Z"/></g><path class="cls-8" d="M192.11,228.02c-22.65-4.9-37.04-27.23-32.15-49.88,.9-4.18,2.4-8.07,4.38-11.62-6.39,5.7-11.1,13.4-13.05,22.41-4.9,22.65,9.49,44.98,32.15,49.88,18.47,3.99,36.73-4.85,45.5-20.53-9.67,8.63-23.19,12.68-36.83,9.73Z"/></g><path class="cls-3" d="M211.54,185.81c2.2,6.28,6.89,10.34,10.47,9.09,3.59-1.26,4.71-7.36,2.51-13.64-2.2-6.27-6.89-10.34-10.47-9.08-3.58,1.26-4.71,7.36-2.51,13.64Z"/></g></g></g><g class="cls-31"><path class="cls-34" d="M99.28,382.15c7.2,8.62,17.3,1.69,17.93-8.56,.43-8.07-2.03-16.69-5.84-24.63-.98-2.06-2.11-4.12-3.48-5.95-.11-1.42-.25-2.85-.79-4.31-.81-2.19-3.01-3.87-5.08-3.57-.14,.02-.28,.05-.42,.09-.69-1.63-2.45-2.81-4.04-3-1.44-.18-2.55,.23-3.45,1.08-.29,.28-.44,.61-.57,.95-.25-.16-.52-.32-.8-.45-1.36-.65-2.7-.83-3.83-.15-.54,.33-1.01,.91-1.26,1.58-.21-.15-.43-.29-.65-.43-1.55-.97-3.55-.49-4.45,.64-.42,.53-.63,1.19-.65,1.88-1-.41-2.09-.57-3.21-.37-2.08,.37-3.21,1.67-3.04,3.81,.19,2.4,1.33,4.53,3.05,6.24,.22,.22,.47,.39,.73,.54,.21,.81,.53,1.67,.9,2.57,5.15,11.72,10.7,22.69,18.95,32.04Z"/><g class="cls-14"><path class="cls-25" d="M84.02,341.97c-.88-2.43-1.77-4.86-2.65-7.28-.12-.32-.42-.53-.77-.44-.31,.08-.55,.45-.44,.77,.88,2.43,1.77,4.86,2.65,7.28,.27,.75,1.48,.43,1.21-.33h0Z"/></g><g class="cls-14"><path class="cls-25" d="M90.19,339.48c-.88-2.43-1.77-4.86-2.65-7.28-.27-.75-1.48-.43-1.21,.33,.88,2.43,1.77,4.86,2.65,7.28,.12,.32,.42,.53,.77,.44,.31-.08,.55-.45,.44-.77h0Z"/></g><g class="cls-14"><path class="cls-25" d="M95.81,338.28c-.88-2.43-1.77-4.86-2.65-7.28-.12-.32-.42-.53-.77-.44-.31,.08-.55,.45-.44,.77,.88,2.43,1.77,4.86,2.65,7.28,.12,.32,.42,.53,.77,.44,.31-.08,.55-.45,.44-.77h0Z"/></g><g class="cls-14"><path class="cls-25" d="M102.56,337.14c-.88-2.43-1.77-4.86-2.65-7.28-.12-.32-.42-.53-.77-.44-.31,.08-.55,.45-.44,.77,.88,2.43,1.77,4.86,2.65,7.28,.27,.75,1.48,.43,1.21-.33h0Z"/></g></g><g class="cls-22"><path class="cls-11" d="M107.14,373.9c3.71,10.6-7.42,15.72-16.54,11.01-7.15-3.76-13.29-10.29-18.17-17.63-1.27-1.9-2.46-3.92-3.33-6.03-1.17-.82-2.32-1.67-3.29-2.89-1.47-1.82-1.78-4.57-.46-6.2,.09-.11,.19-.22,.29-.31-1.05-1.43-1.16-3.55-.51-5.01,.59-1.33,1.5-2.08,2.7-2.41,.39-.1,.75-.06,1.11,0,0-.3,0-.61,.02-.92,.14-1.5,.67-2.75,1.83-3.36,.56-.3,1.3-.4,2-.27-.02-.26-.03-.52-.03-.78-.04-1.83,1.39-3.3,2.82-3.49,.67-.09,1.35,.07,1.95,.4,.16-1.07,.58-2.08,1.33-2.95,1.38-1.6,3.08-1.91,4.83-.66,1.96,1.39,3.21,3.46,3.8,5.82,.07,.3,.1,.6,.09,.9,.59,.6,1.16,1.31,1.74,2.09,7.42,10.43,14,20.81,17.81,32.69Z"/><g class="cls-14"><path class="cls-25" d="M81.34,339.34c-1.63-2-3.27-4-4.9-6.01-.21-.26-.66-.22-.88,0-.26,.26-.21,.62,0,.88,1.63,2,3.27,4,4.9,6.01,.21,.26,.66,.22,.88,0,.26-.26,.21-.62,0-.88h0Z"/></g><g class="cls-14"><path class="cls-25" d="M76.04,343.36c-1.63-2-3.27-4-4.9-6.01-.21-.26-.66-.22-.88,0-.26,.26-.21,.62,0,.88,1.63,2,3.27,4,4.9,6.01,.21,.26,.66,.22,.88,0,.26-.26,.21-.62,0-.88h0Z"/></g><g class="cls-14"><path class="cls-25" d="M72.13,347.58c-1.63-2-3.27-4-4.9-6.01-.21-.26-.66-.22-.88,0-.26,.26-.21,.62,0,.88,1.63,2,3.27,4,4.9,6.01,.21,.26,.66,.22,.88,0,.26-.26,.21-.62,0-.88h0Z"/></g><g class="cls-14"><path class="cls-25" d="M67.7,352.79c-1.63-2-3.27-4-4.9-6.01-.21-.26-.66-.22-.88,0-.26,.26-.21,.62,0,.88,1.63,2,3.26,4,4.9,6.01,.21,.26,.66,.22,.88,0,.26-.26,.21-.62,0-.88h0Z"/></g></g><g><path class="cls-11" d="M199.53,299.96c-5.62,5.94-13.13,12.13-16.19,20.02-9.52,24.56,26.79,62.45,51.87,50.81,7.85-3.66,14.19-10.99,20.27-16.87,6.73-6.51,12.99-13.56,18.91-20.82,9.87-12.1,.09-30.22-9.92-40.38-9.07-9.2-31.41-22.26-43.13-12.69-7.63,6.22-15.06,12.79-21.81,19.94Z"/><g><path class="cls-32" d="M245.93,345.7c.11,.67-.07,1.49-.66,2.49-.19,.33-.46,.59-.76,.77-.31,.19-.67,.28-1.04,.26-.18,0-.75-.08-1.57-.29-.82-.21-1.88-.6-2.98-1.23-1.1-.63-2.24-1.5-3.2-2.58-.97-1.08-1.79-2.33-2.37-3.65-1.21-2.63-1.4-5.42-1.13-7.37,.13-.98,.34-1.76,.52-2.28,.08-.27,.17-.47,.22-.61,.05-.14,.08-.21,.08-.21,.49-1.07,.75-.93,.63,.16,0,0,0,.07-.01,.21,0,.14-.03,.34-.02,.6,0,.52,.03,1.25,.19,2.1,.3,1.7,1.21,3.85,2.68,5.44,.71,.81,1.55,1.46,2.37,1.94,1.92,1.14,6.64,1.65,7.07,4.24Z"/><path class="cls-23" d="M255.33,324.92c.13-2.3-.21-5.63-3.07-5.98-1.62-.2-1.64-2.76,0-2.57,4.39,.53,5.87,4.56,5.64,8.54-.09,1.65-2.66,1.66-2.57,0h0Z"/></g><g><path class="cls-32" d="M203.13,302.9c-.6-.04-1.36,.2-2.32,.83-.32,.21-.58,.47-.77,.76-.2,.3-.31,.63-.33,.96-.02,.17,0,.67,.12,1.4,.12,.72,.37,1.65,.84,2.59,.47,.94,1.15,1.89,2.04,2.66,.88,.78,1.94,1.41,3.08,1.81,2.27,.85,4.79,.76,6.57,.34,.9-.21,1.62-.47,2.12-.68,.25-.09,.44-.2,.57-.26,.13-.06,.2-.09,.2-.09,1.01-.54,.91-.77-.08-.55,0,0-.07,.01-.2,.03-.13,.02-.31,.06-.55,.08-.47,.05-1.13,.09-1.89,.03-1.51-.11-3.38-.73-4.69-1.92-.67-.57-1.18-1.27-1.54-1.97-.85-1.64-.88-5.86-3.18-6.01Z"/><path class="cls-23" d="M221.31,288.34c3.98-.23,8.02,1.25,8.54,5.64,.2,1.64-2.37,1.62-2.57,0-.34-2.86-3.68-3.2-5.98-3.07-1.66,.09-1.65-2.47,0-2.57h0Z"/></g><g class="cls-14"><path class="cls-11" d="M220.79,321.84c-3.77-.46-8.49,2.91-5.66,6.79,.97,1.34-1.27,2.59-2.23,1.27-3.93-5.41,2.24-11.31,7.89-10.63,1.62,.2,1.64,2.77,0,2.57h0Z"/></g><g><path class="cls-28" d="M219.5,344.9c-7.11,2.12-15.12-3.13-13.85-10.95,.13-.82,1.37-.48,1.24,.33-1.12,6.92,6.19,11.2,12.29,9.38,.79-.24,1.12,1,.33,1.24h0Z"/><path class="cls-28" d="M221.92,346.78c-2.32-1.23-3.14-3.6-2.24-6.05,.29-.77,1.53-.45,1.24,.33-.71,1.92-.21,3.62,1.63,4.6,.73,.39,.09,1.5-.63,1.12h0Z"/><path class="cls-28" d="M208.88,333.1c-1.35,1.91-3.51,1.91-5.47,.97-.75-.36-.11-1.47,.63-1.12,1.27,.61,2.81,.8,3.72-.48,.47-.67,1.59-.04,1.12,.63h0Z"/></g><path class="cls-12" d="M222.11,346.34c-5.01,5.01-5.01,13.14,0,18.15,5.01,5.01,13.14,5.01,18.15,0,5.01-5.01,5.01-13.14,0-18.15-5.01-5.01-13.14-5.01-18.15,0Z"/><g class="cls-33"><path class="cls-12" d="M183.39,308.34c-5.01,5.01-5.01,13.14,0,18.15,5.01,5.01,13.14,5.01,18.15,0,5.01-5.01,5.01-13.14,0-18.15-5.01-5.01-13.14-5.01-18.15,0Z"/></g><g><path class="cls-23" d="M248.21,279.04c-.04-2.39,1.1-4.98,2.89-6.51,.55-.47,1.26-.5,1.82,0,2.08,1.87,3.54,4.24,5.62,6.12,1.98,1.79,3.71,3.82,5.19,6.05,2.65,4,5.23,9.69,1.64,13.95-4.29,5.1-11.68,2.84-16.12-.64-5.13-4.02-8.89-11.31-6.64-17.78,1.19-3.41,3.42-2.7,5.61-1.2Z"/><g class="cls-7"><path class="cls-10" d="M251.88,279.3s.25,.19,.66,.49c.11,.07,.22,.16,.35,.24,.12,.1,.25,.21,.39,.33,.28,.23,.59,.47,.91,.79,.16,.15,.33,.31,.5,.46,.17,.18,.34,.35,.51,.53,.36,.35,.7,.78,1.08,1.18,.71,.87,1.46,1.82,2.16,2.87,.69,1.05,1.29,2.08,1.79,3.06,.11,.25,.22,.49,.32,.73l.16,.35,.12,.35c.08,.23,.17,.46,.25,.68,.07,.22,.12,.44,.17,.64,.05,.21,.13,.41,.16,.6,.03,.19,.06,.38,.09,.55,.03,.18,.06,.34,.09,.5,0,.15,.02,.29,.03,.42,.04,.51,.06,.82,.06,.82,0,0,.15-.24,.4-.73,.06-.12,.13-.26,.2-.41,.05-.16,.11-.33,.17-.51,.06-.19,.12-.39,.18-.6,.06-.22,.08-.45,.12-.69,.03-.25,.08-.51,.1-.78,0-.28,0-.56,0-.85v-.45s-.07-.46-.07-.46c-.05-.31-.09-.64-.15-.96-.29-1.3-.86-2.66-1.69-3.94-.84-1.27-1.9-2.28-2.94-3.07-.54-.37-1.05-.72-1.58-.97-.26-.13-.5-.26-.75-.37-.25-.09-.49-.18-.72-.27-.45-.18-.89-.27-1.27-.35-.18-.04-.36-.07-.52-.11-.16-.01-.31-.03-.45-.04-.54-.04-.83-.04-.83-.04Z"/><path class="cls-10" d="M245.71,283.29s.12,.21,.36,.55c.22,.36,.59,.81,.98,1.4,.81,1.17,1.84,2.71,3.15,4.3,1.29,1.61,2.69,2.96,3.79,3.9,1.1,.95,1.89,1.47,1.89,1.47,0,0-.17-.93-.65-2.31-.48-1.38-1.3-3.22-2.7-4.96-1.42-1.73-3.17-2.92-4.52-3.55-.67-.33-1.28-.49-1.67-.62-.4-.12-.63-.17-.63-.17Z"/></g></g></g><g><g><path class="cls-5" d="M7.48,267.07l-7.48-2.64c14.95-8,35.23-8.57,50.7-1.87,16.56,7.18,20.05,26.2,21.91,42.28,.18,1.59,.44,3.17,.73,4.75,.56,.88,1.25,1.67,1.93,2.45,3.14,3.55,8.09,5.45,12.64,6.24,8.32,1.43,17.16-1.76,24.81-4.67,15.89-6.05,34.26-18.26,51.99-14.34,1.81,.4,1.74,9.02,3.42,9.4-17.23-3.82-35.39,7.72-50.77,13.86-15.54,6.2-36.07,9.97-43.34-9.49-.11-.3-.21-.59-.32-.89-.27,.04-1.62-3.75-1.29-3.84-1.97-6.29-3.14-12.41-3.94-19.24-.23-1.96-.55-3.91-.94-5.85-.59-1.02-1.31-1.97-2.03-2.91-2.65-3.43-6.48-5.91-10.3-7.85-14.9-7.56-36.02-6.65-50.89,.91l3.16-6.3Z"/><path class="cls-6" d="M164.71,299.27c1.21,.27,1.58,4.2,2.19,6.9,0,.76-.04,1.51-.09,2.25-5.13-.9-10.33-.5-15.5,.66-.09-1.08-.15-2.19-.15-3.34,0-2.41,.22-4.7,.62-6.79,4.32-.62,8.64-.62,12.93,.33Z"/></g><g><path class="cls-26" d="M81.49,385.39c-.83,1.59-1.59,3.22-2.2,4.91-2.24,6.2-2.92,13.79,1.31,19.38,3.01,3.99,6.68,6.65,10.69,8.26,16.36,19.72,42.09,28.11,67.44,26.73,24.18-1.32,59.28-9.77,67.48-36.15,2.46-.67,4.78-1.95,6.74-3.99,5.25-5.46,6.67-12.91,4.66-20.12-.11-.38-.29-.68-.51-.91,6.06-3.71,10.39-10.91,11.16-18.37,.13-1.29-.73-1.96-1.73-2.05-.36-.12-.76-.15-1.22-.03-44.31,11.44-70.15-40.04-78.48-75.31-.58-2.47-4.08-1.73-4.21,.47-.38,.25-.69,.65-.81,1.25-1.93,9.49-6.78,18.36-12.07,26.38-6.69,10.13-14.61,19.53-23.65,27.66-14.82,13.33-37.87,28.26-57.81,17.06-.83-1.91-4.04-.94-4.02,1.31-.03,.32,0,.65,.13,.96,1.87,10.57,8.36,18.31,17.11,22.55Z"/><g class="cls-19"><g><g class="cls-14"><path class="cls-1" d="M181.44,398.04s.35,.01,1,.04c.66,.02,1.62,.07,2.87,.07,2.5,.03,6.12-.03,10.59-.41,8.9-.79,21.3-2.88,34.06-8.32,3.17-1.37,6.21-2.87,9.06-4.48,2.83-1.64,5.49-3.36,7.91-5.16,4.83-3.62,8.72-7.49,11.52-11.07,2.8-3.59,4.59-6.81,5.61-9.11,.56-1.12,.85-2.06,1.11-2.66,.23-.61,.35-.94,.35-.94,0,0-.2,.29-.57,.83-.39,.53-.87,1.36-1.65,2.33-1.44,1.99-3.75,4.71-6.92,7.66-3.18,2.94-7.28,6.06-12.12,9.05-2.43,1.49-5.05,2.93-7.8,4.35-2.77,1.4-5.69,2.75-8.72,4.05-12.14,5.19-23.78,8.56-32.31,10.71-4.27,1.07-7.77,1.82-10.21,2.31-2.41,.48-3.79,.75-3.79,.75Z"/></g><g class="cls-14"><path class="cls-1" d="M55.33,406s1.21,.66,3.32,1.81c2.14,1.15,5.26,2.77,9.17,4.65,7.81,3.75,18.87,8.64,31.91,11.83,6.52,1.56,12.88,2.44,18.69,2.81,1.45,.05,2.87,.1,4.25,.14,1.37,.07,2.72-.04,4.01-.06,1.29-.06,2.54-.05,3.74-.18,1.19-.12,2.33-.23,3.43-.34,2.18-.17,4.13-.61,5.84-.89,.85-.16,1.65-.28,2.37-.46,.72-.18,1.38-.35,1.97-.5,2.32-.62,3.65-.97,3.65-.97,0,0-1.37,.04-3.77,.1-.6,.02-1.27,.05-2,.08-.73,.03-1.53-.02-2.39-.02-1.71-.05-3.64,.04-5.78-.14-1.07-.06-2.19-.12-3.34-.18-1.16-.04-2.36-.22-3.61-.33-1.24-.14-2.53-.19-3.84-.41-1.32-.18-2.67-.37-4.06-.55-5.54-.86-11.57-2.05-17.87-3.55-12.58-3.08-23.92-6.56-32.21-8.99-4.14-1.22-7.52-2.19-9.85-2.85-2.32-.63-3.64-.99-3.64-.99Z"/></g><g class="cls-14"><path class="cls-1" d="M47.68,371.61s.88,.76,2.4,2.07c.78,.66,1.73,1.48,2.91,2.34,1.17,.85,2.47,1.91,4.02,2.9,1.54,1.01,3.21,2.15,5.1,3.19,.94,.53,1.91,1.11,2.94,1.64,1.04,.52,2.11,1.05,3.19,1.59,4.42,2.08,9.47,4.02,14.93,5.46,5.47,1.41,10.8,2.2,15.64,2.62,1.21,.08,2.39,.16,3.54,.24,1.15,.07,2.27,.07,3.34,.1,2.16,.07,4.17,0,5.99-.06,3.66-.15,6.6-.41,8.63-.66,2-.25,3.15-.4,3.15-.4,0,0-1.15-.17-3.13-.48-2.01-.27-4.92-.72-8.48-1.26-1.78-.29-3.73-.57-5.8-.96-1.04-.19-2.11-.34-3.21-.56-1.1-.21-2.23-.43-3.39-.64-4.62-.92-9.65-2.02-14.87-3.36-5.21-1.38-10.11-2.89-14.55-4.41-1.1-.39-2.18-.77-3.23-1.15-1.05-.38-2.05-.79-3.03-1.16-1.97-.72-3.76-1.52-5.42-2.2-1.68-.66-3.12-1.4-4.45-1.96-1.33-.56-2.43-1.12-3.35-1.55-1.82-.85-2.87-1.33-2.87-1.33Z"/></g><g class="cls-14"><path class="cls-1" d="M203.1,405.36s.66,.38,1.91,1.03c.62,.33,1.39,.72,2.31,1.08,.92,.37,1.97,.85,3.17,1.21,1.2,.4,2.52,.81,3.97,1.12,1.45,.37,3.01,.61,4.67,.85,3.32,.41,7.01,.54,10.84,.21,3.83-.35,7.42-1.1,10.6-2,3.18-.93,5.96-1.97,8.24-2.99,2.28-1,4.07-1.93,5.28-2.62,1.22-.68,1.87-1.08,1.87-1.08,0,0-.77,.07-2.15,.25-1.43,.19-3.43,.45-5.77,.75-2.41,.33-5.27,.66-8.41,1.05-3.14,.35-6.57,.72-10.15,1.05-3.59,.3-6.99,.52-10.12,.65-1.56,.02-3.05,.1-4.45,.07-1.4,.02-2.71-.03-3.91-.07-1.21,0-2.29-.12-3.26-.17-.97-.04-1.8-.12-2.49-.2-1.37-.14-2.15-.19-2.15-.19Z"/></g></g></g></g><g><path class="cls-26" d="M175.29,263.55c1.07-1.17,2.97-.77,3.75,.48,8.04,12.83-1.71,31.38-12.32,39.57-.02,.01-.04,.02-.06,.04-.02,.79-.03,1.57-.03,2.36-.01,3.08-4.79,3.08-4.78,0,.07-15.52,2.67-30.61,13.44-42.45Z"/><path class="cls-26" d="M152.01,263.55c-1.07-1.17-2.97-.77-3.75,.48-8.04,12.83,1.71,31.38,12.32,39.57,.02,.01,.04,.02,.06,.04,.02,.79,.03,1.57,.03,2.36,.01,3.08,4.79,3.08,4.78,0-.07-15.52-2.67-30.61-13.44-42.45Z"/></g><g><path class="cls-20" d="M24.16,209.24l-6.12-5.04c16.79-2.41,36.04,3.99,48.28,15.59,13.11,12.41,9.88,31.48,6.12,47.23-.37,1.56-.67,3.13-.94,4.71,.23,1.02,.6,1.99,.98,2.96,1.74,4.41,5.73,7.89,9.75,10.19,7.33,4.19,16.73,4.22,24.91,4.1,17-.25,38.44-5.44,53.75,4.31,1.56,1-1.46,9.07,0,10-14.89-9.48-35.9-4.85-52.45-4.34-16.73,.51-37.31-2.97-37.48-23.74,0-.32,0-.63,0-.94-.26-.05-.24-4.08,.1-4.05,.3-6.59,1.3-12.74,2.88-19.43,.46-1.92,.82-3.86,1.12-5.82-.21-1.17-.55-2.3-.91-3.42-1.31-4.13-4.07-7.77-6.99-10.9-11.41-12.2-31.57-18.57-48.13-16.56l5.12-4.84Z"/><path class="cls-13" d="M156.14,300.8c-.72-2.73-1.48-7.64,1.07-9.52,1.26,.59,2.49,1.25,3.68,2,1.56,1-1.46,9.07,0,10-1.52-.97-3.11-1.79-4.75-2.48Z"/></g><g><path class="cls-24" d="M162.73,290.25c1.15-.06,2.15,.3,2.9,.84,.75-.54,1.74-.9,2.9-.84,6.11,.34,3.69,9.5,2.91,11.72-.4,1.13-1.06,2.54-2.63,3.22-1.32,.57-2.4,.13-3.18-.61-.78,.74-1.86,1.18-3.18,.61-1.56-.68-2.23-2.09-2.63-3.22-.78-2.21-3.2-11.38,2.91-11.72Z"/><path class="cls-13" d="M159.82,299.3c.4,1.13,1.06,2.54,2.63,3.22,1.32,.57,2.4,.13,3.18-.61,.78,.74,1.86,1.18,3.18,.61,1.56-.68,2.23-2.09,2.63-3.22,.31-.87,.87-2.82,1.06-4.89,.34,2.84-.62,6.31-1.06,7.56-.4,1.13-1.06,2.54-2.63,3.22-1.32,.57-2.4,.13-3.18-.61-.78,.74-1.86,1.18-3.18,.61-1.56-.68-2.23-2.09-2.63-3.22-.44-1.25-1.4-4.71-1.06-7.56,.19,2.06,.75,4.02,1.06,4.89Z"/></g></g><g><path class="cls-11" d="M252.26,370.33c-2.66,2.66-6.88,2.74-9.43,.19-2.55-2.55-2.47-6.78,.18-9.43,2.66-2.66,6.88-2.74,9.43-.19,2.55,2.55,2.47,6.77-.19,9.43Z"/><g class="cls-14"><path class="cls-25" d="M249.68,366.88c.39-.83,.11-.93-.75-1-.89-.07-1.89,.07-2.7,.45-1.49,.7-2.77-1.53-1.27-2.23,1.62-.76,3.64-1.06,5.38-.55,2.2,.65,2.45,2.76,1.58,4.6-.72,1.5-2.94,.22-2.23-1.27h0Z"/></g></g></g><g><polygon class="cls-2" points="197.93 89.61 201.27 96.12 207.38 99.68 201.27 103.24 197.93 109.75 194.58 103.24 188.47 99.68 194.58 96.12 197.93 89.61"/><polygon class="cls-2" points="145.83 169.98 147.94 174.08 151.79 176.33 147.94 178.57 145.83 182.67 143.72 178.57 139.87 176.33 143.72 174.08 145.83 169.98"/><polygon class="cls-2" points="147.83 36.73 149.94 40.83 153.79 43.08 149.94 45.32 147.83 49.42 145.72 45.32 141.87 43.08 145.72 40.83 147.83 36.73"/><polygon class="cls-2" points="222.89 124.75 223.94 126.79 225.85 127.9 223.94 129.02 222.89 131.05 221.85 129.02 219.94 127.9 221.85 126.79 222.89 124.75"/><polygon class="cls-2" points="115.32 184.47 116.36 186.51 118.28 187.62 116.36 188.74 115.32 190.77 114.27 188.74 112.36 187.62 114.27 186.51 115.32 184.47"/><polygon class="cls-2" points="164.32 22.47 165.36 24.51 167.28 25.62 165.36 26.74 164.32 28.77 163.27 26.74 161.36 25.62 163.27 24.51 164.32 22.47"/><polygon class="cls-2" points="113.32 142.54 115.67 147.12 119.97 149.62 115.67 152.13 113.32 156.71 110.96 152.13 106.66 149.62 110.96 147.12 113.32 142.54"/></g></g></g></g></svg>